<?xml version="1.0" encoding="utf-8"?>
<svg version="1.1" xmlns="http://www.w3.org/2000/svg" width="512px" height="512px" viewBox="0 0 512 512">
	<path fill="#00BF38" d="M256.281,498.5c-99.684,0.155-180.9-80.795-181.052-180.481c-0.011-12.94,1.369-25.977,4.141-38.74
		c0.162-0.744,0.525-2.327,0.525-2.327c0.146-0.726,0.79-3.644,0.952-4.325c0.141-0.609,24.71-111.25,24.863-111.953
		c0.145-0.671,9.343-42.157,9.521-42.917C128.438,57.407,187.299,13.604,255.522,13.5c68.28-0.11,127.296,43.554,140.639,103.936
		c0.169,0.688,5.159,22.867,5.328,23.623c0.162,0.669,29.035,128.858,29.035,128.858c0.167,0.758,0.346,1.517,0.498,2.273
		l0.947,4.135c0.188,0.815,0.373,1.617,0.545,2.441c2.81,12.735,4.233,25.744,4.256,38.684
		C436.928,417.122,355.955,498.364,256.281,498.5z"/>
	<path fill="#FFFFFF" d="M255.902,173.122c-38.859,0-74.178,15.457-100.187,40.473c9.087-40.607,18.35-82.033,18.554-82.898
		c7.048-33,41.371-56.926,81.633-56.926c40.289,0,74.634,24.036,81.709,57.269l5.731,25.62c1.462,6.488,7.897,10.601,14.403,9.115
		c6.491-1.446,10.582-7.877,9.127-14.385l-5.706-25.487c-9.402-44.175-53.679-76.249-105.265-76.249
		c-51.569,0-95.804,31.976-105.189,75.881c-35.378,158.137-36.002,160.92-36.002,160.92c-0.032,0.17-0.054,0.312-0.075,0.473
		c-0.493,2.195-0.92,4.434-1.288,6.687c-0.042,0.277-0.104,0.543-0.157,0.812c-0.362,2.354-0.693,4.717-0.964,7.09
		c-0.026,0.22-0.06,0.436-0.075,0.645c-0.255,2.316-0.449,4.66-0.596,7.01c-0.01,0.267-0.043,0.533-0.043,0.801
		c-0.146,2.574-0.217,5.149-0.217,7.768c0,79.736,64.863,144.609,144.606,144.609c79.732,0,144.612-64.873,144.612-144.609
		C400.515,237.991,335.635,173.122,255.902,173.122z M255.902,438.239c-66.443,0-120.496-54.058-120.496-120.502
		c0-2.162,0.055-4.322,0.167-6.465c0.011-0.209,0.05-0.4,0.05-0.588c0.119-1.984,0.271-3.979,0.498-5.963
		c0.01-0.119,0.036-0.232,0.036-0.344c0.222-2.049,0.515-4.094,0.85-6.141c0.012-0.146,0.044-0.314,0.082-0.456
		c0.32-1.929,0.683-3.88,1.114-5.796c11.833-54.119,60.095-94.748,117.699-94.748c66.451,0,120.498,54.059,120.498,120.5
		C376.4,384.182,322.354,438.239,255.902,438.239z"/>
</svg>
